<?xml version="1.0" encoding="utf-8"?>
<!-- Generator: Adobe Adobe Illustrator 29.1.0, SVG Export Plug-In . SVG Version: 6.00 Build 0)  -->
<svg version="1.1" id="Layer_1" xmlns="http://www.w3.org/2000/svg" xmlns:xlink="http://www.w3.org/1999/xlink" x="0px" y="0px"
	 width="321.6px" height="310.9px" viewBox="0 0 321.6 310.9" style="enable-background:new 0 0 321.6 310.9;" xml:space="preserve"
	>
<style type="text/css">
	.st0{fill:#8B8A8F;}
	.st1{fill:#FFFFFF;}
	.st2{fill:#B687B9;}
	.st3{fill:#F6A704;}
	.st4{fill:#63A1D9;}
	.st5{fill:#7AAED5;}
	.st6{fill:#E67E3A;}
	.st7{fill:#E67D3C;}
	.st8{fill:#A9AE00;}
	.st9{font-family:'SourceSansPro-Regular';}
	.st10{font-size:60px;}
	.st11{letter-spacing:-1;}
</style>
<g transform="translate(.132292 -.132287)">
	<path class="st0" d="M61.1,50.6c-6.6,0-12,5.1-12,13.4c0,8.2,5.5,13.4,12,13.4c6.4,0,12.1-5.3,12.1-13.4
		C73.2,55.9,67.5,50.6,61.1,50.6 M73,84.9v-7c-3.1,4.3-7.4,7.8-14.2,7.8c-9.8,0-19.3-7.8-19.3-21.7c0-13.9,9.4-21.7,19.3-21.7
		c6.9,0,11.2,3.5,14.2,7.3V27.3h9.6v57.7L73,84.9z"/>
	<path class="st0" d="M114.8,67.2c-2.4-0.9-5.8-1.7-9.6-1.7c-6,0-9.6,2.4-9.6,6.7v0.2c0,3.9,3.6,6.2,8.1,6.2
		c6.3,0,11.1-3.6,11.1-8.8V67.2z M114.5,84.9v-5.1c-2.8,3.4-7.2,6-13.5,6c-7.9,0-14.9-4.5-14.9-12.9v-0.2c0-9,7.2-13.4,16.9-13.4
		c5.1,0,8.3,0.7,11.5,1.7v-1c0-5.8-3.6-8.9-10.3-8.9c-4.7,0-8.1,1-11.9,2.6L89.8,46c4.6-2.1,9.1-3.5,15.9-3.5
		C118,42.6,124,49,124,60.2v24.7L114.5,84.9"/>
	<path class="st0" d="M150.5,86.1c-3.3,8.5-7,11.7-13.7,11.7c-4,0-6.9-1-9.9-2.5l3.2-7.1c1.7,0.9,3.6,1.6,5.6,1.6
		c2.7,0,4.3-1.2,5.9-4.8l-17.4-41.7h10.2l11.9,31l10.8-31h10L150.5,86.1z"/>
	<path class="st0" d="M181.3,71.9c0,3.7,1.9,5.2,5.1,5.2c2.1,0,4-0.5,5.9-1.4v7.8c-2.4,1.3-5.1,2.1-8.6,2.1c-7,0-12-3.1-12-12.2v-22
		h-7.7l2.4-8.2h5.3V31.8h9.6v11.4h11.2v8.2h-11.2V71.9z"/>
	<path class="st0" d="M215.3,50.7c-7.7,0-12.6,6-12.6,13.3c0,7.4,5.3,13.5,12.7,13.5c7.7,0,12.6-6,12.6-13.3
		C228.1,56.8,222.8,50.7,215.3,50.7 M215.3,85.9c-12.7,0-22.1-9.7-22.1-21.6c0-12,9.5-21.9,22.3-21.9c12.8,0,22.2,9.7,22.2,21.7
		C237.6,76,228.2,85.9,215.3,85.9"/>
	<path class="st0" d="M251.4,84.9h-9.6V43.2h9.6v6.5c2.7-3.9,6.6-7.3,13-7.3c9.4,0,14.8,6.3,14.8,16v26.5h-9.6V61.2
		c0-6.5-3.2-10.2-8.9-10.2c-5.5,0-9.4,3.9-9.4,10.3V84.9z"/>
	<path class="st0" d="M23.2,155.6c-12.4,0-21.6-9.7-21.6-21.6s9.2-21.9,21.6-21.9c7.9,0,12.8,2.9,16.7,7.2l-5.9,6.4
		c-2.9-3.1-6-5.2-10.8-5.2c-7,0-12,6-12,13.4c0,7.5,5.1,13.5,12.5,13.5c4.5,0,7.8-2.1,10.8-5.2l5.8,5.7
		C36.2,152.3,31.3,155.6,23.2,155.6"/>
	<path class="st0" d="M53.1,154.6h-9.6V97h9.6v22.4c2.7-3.9,6.6-7.3,13-7.3c9.4,0,14.8,6.3,14.8,16v26.5h-9.6v-23.7
		c0-6.5-3.2-10.2-8.9-10.2c-5.5,0-9.4,3.9-9.4,10.3V154.6z"/>
	<path class="st0" d="M97.1,154.6h-9.6v-41.7h9.6V154.6z M97.4,106.5H87.1v-9.1h10.3V106.5z"/>
	<path class="st0" d="M104.6,154.6h9.6V97h-9.6V154.6z"/>
	<path class="st0" d="M140.6,120.4c-6.6,0-12,5.1-12,13.4c0,8.2,5.5,13.4,12,13.4c6.4,0,12.1-5.3,12.1-13.4
		C152.7,125.7,147,120.4,140.6,120.4 M152.5,154.6v-7c-3.1,4.3-7.4,7.8-14.2,7.8c-9.8,0-19.3-7.8-19.3-21.7
		c0-13.9,9.4-21.7,19.3-21.7c6.9,0,11.2,3.5,14.2,7.3V97h9.6v57.7L152.5,154.6z"/>
	<path class="st0" d="M178,154.6h-9.6v-41.7h9.6v9.4c2.6-6.2,7.4-10.5,14.8-10.2v10.1h-0.6c-8.4,0-14.2,5.4-14.2,16.5L178,154.6"/>
	<path class="st0" d="M222.7,130.9c-0.6-6.2-4.3-11-10.6-11c-5.8,0-10,4.5-10.8,11H222.7z M213.4,147.8c4.7,0,8-1.7,11.3-5l5.6,5
		c-4,4.7-9.4,7.8-17.1,7.8c-12.1,0-21.4-8.8-21.4-21.7c0-12,8.5-21.8,20.4-21.8c13.3,0,20,10.4,20,22.5c0,0.9-0.1,1.7-0.2,2.6h-30.6
		C202.5,144,207.2,147.8,213.4,147.8"/>
	<path class="st0" d="M245.9,154.6h-9.6v-41.7h9.6v6.5c2.7-3.9,6.6-7.3,13-7.3c9.4,0,14.8,6.3,14.8,16v26.5h-9.6v-23.7
		c0-6.5-3.2-10.2-8.9-10.2c-5.5,0-9.4,3.9-9.4,10.3V154.6z"/>
	<path class="st0" d="M283.5,110.2h-4V99.4H290v9.2c0,8.8-4.2,12.5-12.2,13.1l-1-4.1C281.7,116.7,283.9,114.3,283.5,110.2"/>
	<path class="st0" d="M304.2,155.4c-5.9,0-12.5-2.1-17.7-6.2l4.3-6.5c4.5,3.4,9.4,5.1,13.7,5.1c4.1,0,6.5-1.7,6.5-4.5v-0.2
		c0-3.2-4.4-4.3-9.3-5.8c-6.2-1.7-13-4.3-13-12.2v-0.2c0-7.9,6.6-12.7,14.8-12.7c5.2,0,10.9,1.8,15.3,4.7l-3.8,6.8
		c-4-2.4-8.3-3.9-11.8-3.9c-3.7,0-5.8,1.7-5.8,4.2v0.2c0,3,4.5,4.3,9.4,5.8c6.1,1.9,13,4.7,13,12.2v0.2
		C319.7,151.1,312.9,155.4,304.2,155.4"/>
</g>
<g>
	<path class="st0" d="M3.8,173.9h4.1l0.4,4.2h0.2c2.6-2.8,5.6-4.9,9.1-4.9c4.5,0,6.9,2.1,8.1,5.5c3-3.2,6.1-5.5,9.6-5.5
		c6,0,8.9,4,8.9,11.4v18.5h-5v-17.8c0-5.5-1.7-7.7-5.4-7.7c-2.3,0-4.6,1.4-7.3,4.4v21.1h-5v-17.8c0-5.5-1.7-7.7-5.4-7.7
		c-2.2,0-4.6,1.4-7.3,4.4v21.1h-5V173.9z"/>
	<path class="st0" d="M51.3,188.5c0-9.5,6.4-15.3,13.1-15.3c7.4,0,11.7,5.3,11.7,13.7c0,1.1-0.1,2-0.2,2.9H56.3c0.4,6,4.1,10,9.6,10
		c2.8,0,5.3-0.8,7.3-2.2l1.7,3.2c-2.5,1.8-5.6,3-9.7,3C57.5,203.8,51.3,198.2,51.3,188.5z M71.7,186c0-5.8-2.7-8.8-7.1-8.8
		c-4.1,0-7.7,3.2-8.3,8.8H71.7z"/>
	<path class="st0" d="M81.2,188.6c0-9.5,6-15.4,12.7-15.4c3.4,0,5.6,1.3,8.2,3.4l-0.2-5v-11.2h5v42.7h-4.1l-0.4-3.4H102
		c-2.3,2.2-5.4,4.1-8.8,4.1C85.9,203.8,81.2,198.3,81.2,188.6z M101.7,195.6v-15.2c-2.5-2.2-4.7-3-7.1-3c-4.6,0-8.3,4.4-8.3,11.1
		c0,7,2.9,11.1,8,11.1C97,199.6,99.3,198.3,101.7,195.6z"/>
	<path class="st0" d="M115.8,164.7c0-1.9,1.4-3.2,3.3-3.2s3.3,1.3,3.3,3.2c0,2-1.4,3.2-3.3,3.2S115.8,166.7,115.8,164.7z
		 M116.6,173.9h5v29.2h-5V173.9z"/>
	<path class="st0" d="M129.2,188.6c0-9.8,6.5-15.4,14-15.4c3.8,0,6.5,1.5,8.5,3.4l-2.5,3.1c-1.6-1.5-3.5-2.4-5.8-2.4
		c-5.3,0-9.1,4.5-9.1,11.2c0,6.7,3.6,11.1,8.9,11.1c2.7,0,5.1-1.2,6.8-2.8l2.2,3.2c-2.6,2.4-5.9,3.7-9.4,3.7
		C135.2,203.8,129.2,198.2,129.2,188.6z"/>
	<path class="st0" d="M156.3,195.5c0-6.5,5.4-9.6,17.9-11c-0.1-3.7-1.3-7.2-6-7.2c-3.4,0-6.4,1.5-8.7,3l-1.9-3.4
		c2.7-1.8,6.8-3.8,11.5-3.8c7.1,0,10.1,4.7,10.1,11.9v17.9h-4.1l-0.5-3.5h-0.2c-2.8,2.3-5.9,4.2-9.6,4.2
		C160,203.8,156.3,200.8,156.3,195.5z M174.2,196v-7.9c-9.8,1.1-13,3.4-13,7.1c0,3.2,2.2,4.5,5,4.5S171.4,198.5,174.2,196z"/>
	<path class="st0" d="M188.4,197.2v-36.8h5v37.2c0,1.6,0.7,2.1,1.4,2.1c0.3,0,0.5,0,1-0.1l0.7,3.7c-0.7,0.4-1.6,0.5-2.9,0.5
		C189.9,203.8,188.4,201.4,188.4,197.2z"/>
	<path class="st0" d="M213.6,188.6c0-9.5,6-15.4,12.7-15.4c3.4,0,5.6,1.3,8.2,3.4l-0.2-5v-11.2h5v42.7h-4.1l-0.4-3.4h-0.2
		c-2.3,2.2-5.4,4.1-8.8,4.1C218.3,203.8,213.6,198.3,213.6,188.6z M234.2,195.6v-15.2c-2.5-2.2-4.7-3-7.1-3c-4.6,0-8.3,4.4-8.3,11.1
		c0,7,2.9,11.1,8,11.1C229.4,199.6,231.8,198.3,234.2,195.6z"/>
	<path class="st0" d="M247.2,195.5c0-6.5,5.4-9.6,17.9-11c-0.1-3.7-1.3-7.2-6-7.2c-3.4,0-6.4,1.5-8.7,3l-1.9-3.4
		c2.7-1.8,6.8-3.8,11.5-3.8c7.1,0,10.1,4.7,10.1,11.9v17.9H266l-0.5-3.5h-0.2c-2.8,2.3-5.9,4.2-9.6,4.2
		C250.8,203.8,247.2,200.8,247.2,195.5z M265.1,196v-7.9c-9.8,1.1-13,3.4-13,7.1c0,3.2,2.2,4.5,5,4.5
		C259.9,199.7,262.2,198.5,265.1,196z"/>
	<path class="st0" d="M279.2,194v-16.1h-4.3v-3.7l4.6-0.3l0.6-9.4h4.1v9.4h7.9v4h-7.9v16.2c0,3.5,1.2,5.6,4.5,5.6
		c1.1,0,2.2-0.2,3.4-0.7l1,3.5c-1.6,0.7-3.5,1.3-5.5,1.3C281.3,203.8,279.2,199.8,279.2,194z"/>
	<path class="st0" d="M295.7,195.5c0-6.5,5.4-9.6,17.9-11c-0.1-3.7-1.3-7.2-6-7.2c-3.4,0-6.4,1.5-8.7,3l-1.9-3.4
		c2.7-1.8,6.8-3.8,11.5-3.8c7.1,0,10.1,4.7,10.1,11.9v17.9h-4.1l-0.5-3.5h-0.2c-2.8,2.3-5.9,4.2-9.6,4.2
		C299.3,203.8,295.7,200.8,295.7,195.5z M313.5,196v-7.9c-9.8,1.1-13,3.4-13,7.1c0,3.2,2.2,4.5,5,4.5S310.7,198.5,313.5,196z"/>
</g>
<g>
	<g>
		<path class="st1" d="M83.2,244.7c-2.4-1.3-4.7-2.8-7.1-4.6c0,0,0,0,0,0l0,0c0,0,0,0,0,0c2.4-1.6,4.9-3.3,7.1-5.1
			c-2.7,0.4-5.5,0.5-8.4,0.5c0,0,0,0,0,0l0,0h0c0.2-0.5,0.4-1,0.5-1.5c0.8-2.3,1.6-4.5,2.2-6.8c-1.9,1.9-4.2,3.6-6.5,5.3
			c0,0,0,0,0,0l0,0c0,0,0,0,0,0c-0.1-0.5-0.3-1-0.4-1.5c-0.7-2.3-1.4-4.6-2.2-6.8c-0.5,2.7-1.2,5.4-2.2,8.1c-0.4-0.3-0.8-0.7-1.2-1
			c-1.9-1.5-3.8-2.9-5.8-4.2c1.2,2.4,2.2,5.1,3,7.8c0,0,0,0,0,0l0,0c0,0,0,0,0,0c-0.5,0-1.1,0-1.6-0.1c-2.4-0.1-4.8-0.1-7.1,0
			c2.4,1.3,4.7,2.8,7.1,4.6c0,0,0,0,0,0l0,0l0,0c-0.4,0.3-0.9,0.6-1.3,0.9c-2,1.4-3.9,2.7-5.8,4.2c2.7-0.4,5.5-0.5,8.4-0.5l0,0
			c-1,2.8-2,5.5-2.7,8.3c1.9-1.9,4.2-3.6,6.5-5.3c0,0,0,0,0,0l0,0c0,0,0,0,0,0c0.8,2.8,1.6,5.6,2.7,8.3c0.5-2.7,1.2-5.4,2.1-8.1l0,0
			c2.3,1.8,4.6,3.6,7,5.1c-1.2-2.4-2.2-5.1-3-7.8l0,0C77.5,244.8,80.4,244.9,83.2,244.7"/>
		<g>
			<path class="st2" d="M65.7,247.2C65.7,247.2,65.7,247.2,65.7,247.2L65.7,247.2C65.7,247.2,65.7,247.2,65.7,247.2"/>
			<path class="st2" d="M71.1,232.6C71,232.6,71,232.6,71.1,232.6L71.1,232.6C71.1,232.6,71.1,232.6,71.1,232.6"/>
			<path class="st2" d="M65.7,247.2C65.7,247.2,65.7,247.2,65.7,247.2L65.7,247.2C65.7,247.2,65.7,247.2,65.7,247.2"/>
			<path class="st2" d="M71.1,232.6C71,232.6,71,232.6,71.1,232.6L71.1,232.6C71.1,232.6,71.1,232.6,71.1,232.6"/>
			<path class="st2" d="M69.9,269C69.9,269,69.9,269,69.9,269c-2.1-4.3-2.3-8.9-1.5-13.4c-1-2.7-1.9-5.5-2.7-8.3
				c-2.3,1.7-4.6,3.4-6.5,5.3c-1.6,6.1-2.1,12.1,0.9,17.8l1-0.2c0,0,0,0,0,0c0.6-0.1,1.2-0.2,1.7-0.3L69.9,269L69.9,269"/>
		</g>
		<path class="st3" d="M86.6,262.5c-4.2-2.3-7-5.8-9.1-9.9c-2.4-1.5-4.7-3.3-7-5.1l0,0c-0.9,2.7-1.7,5.4-2.1,8.1
			c2.3,5.9,5.4,11,11.2,13.8c0.1-0.1,0.1-0.1,0.2-0.1L86.6,262.5"/>
		<path class="st4" d="M62.2,235.1L62.2,235.1C62.3,235.1,62.2,235.1,62.2,235.1C62.2,235.1,62.2,235.1,62.2,235.1"/>
		<path class="st5" d="M96.4,247.5c-4.8,0.7-9.1-0.5-13.2-2.7c-2.8,0.1-5.7,0.1-8.7,0l0,0c0.9,2.7,1.8,5.4,3,7.8
			c5.3,3.4,10.8,5.7,17.2,4.6L96.4,247.5L96.4,247.5C96.5,247.5,96.4,247.5,96.4,247.5"/>
		<path class="st6" d="M60.6,239.6L60.6,239.6C60.6,239.6,60.6,239.6,60.6,239.6C60.6,239.6,60.6,239.6,60.6,239.6"/>
		<path class="st7" d="M99.8,238.3l-1.5-2.9c0,0,0,0,0,0l-2.9-5.8c-3.5,3.3-7.7,4.9-12.3,5.6c-2.2,1.8-4.6,3.5-7.1,5.1
			c2.3,1.7,4.6,3.3,7.1,4.6C89.5,244.4,95.4,243,99.8,238.3C99.9,238.3,99.9,238.3,99.8,238.3"/>
		<path class="st6" d="M76.2,240.2C76.2,240.2,76.2,240.2,76.2,240.2L76.2,240.2L76.2,240.2z"/>
		<path class="st8" d="M74.8,235.6C74.8,235.6,74.8,235.6,74.8,235.6C74.8,235.6,74.8,235.6,74.8,235.6L74.8,235.6z"/>
		<path class="st8" d="M84.2,215.6L84.2,215.6C84.2,215.5,84.2,215.5,84.2,215.6c-0.8,4.7-3.3,8.5-6.7,11.7
			c-0.6,2.3-1.4,4.5-2.2,6.8c-0.2,0.5-0.4,1-0.5,1.5c2.9,0,5.7-0.1,8.4-0.5c4.9-4,8.8-8.6,9.7-14.9L84.2,215.6"/>
		<path class="st2" d="M71.1,232.6C71,232.6,71,232.6,71.1,232.6L71.1,232.6C71.1,232.6,71.1,232.6,71.1,232.6"/>
		<path class="st2" d="M65.5,247.3C65.5,247.3,65.6,247.3,65.5,247.3L65.5,247.3C65.5,247.2,65.5,247.3,65.5,247.3"/>
		<path class="st2" d="M71.1,232.6C71,232.6,71,232.6,71.1,232.6L71.1,232.6C71.1,232.6,71.1,232.6,71.1,232.6"/>
		<path class="st2" d="M65.5,247.3C65.5,247.3,65.6,247.3,65.5,247.3L65.5,247.3C65.5,247.2,65.5,247.3,65.5,247.3"/>
		<path class="st2" d="M66.9,210.9C66.9,210.9,66.9,210.9,66.9,210.9c2.1,4.3,2.3,8.9,1.5,13.4c1,2.7,1.9,5.5,2.7,8.3
			c2.3-1.7,4.6-3.4,6.5-5.3c1.6-6.1,2.1-12.1-0.9-17.8l-1,0.2c0,0,0,0,0,0c-0.6,0.1-1.2,0.2-1.7,0.3L66.9,210.9L66.9,210.9"/>
		<path class="st3" d="M50.1,217.4c4.2,2.3,7,5.8,9.1,9.9c2.4,1.5,4.7,3.3,7,5.1l0,0c0.9-2.7,1.7-5.4,2.1-8.1
			c-2.3-5.9-5.4-11-11.2-13.8c-0.1,0.1-0.1,0.1-0.2,0.1L50.1,217.4"/>
		<path class="st4" d="M74.5,244.7L74.5,244.7L74.5,244.7C74.5,244.7,74.5,244.7,74.5,244.7"/>
		<path class="st5" d="M40.3,232.4c4.8-0.7,9.1,0.5,13.2,2.7c2.8-0.1,5.7-0.1,8.7,0l0,0c-0.9-2.7-1.8-5.4-3-7.8
			c-5.3-3.4-10.8-5.7-17.2-4.6L40.3,232.4L40.3,232.4C40.3,232.4,40.3,232.4,40.3,232.4"/>
		<path class="st6" d="M76.2,240.2L76.2,240.2C76.2,240.2,76.2,240.2,76.2,240.2C76.2,240.2,76.2,240.2,76.2,240.2"/>
		<path class="st7" d="M36.9,241.5l1.5,2.9c0,0,0,0,0,0l2.9,5.8c3.5-3.3,7.7-4.9,12.3-5.6c2.2-1.8,4.6-3.5,7.1-5.1
			c-2.3-1.7-4.6-3.3-7.1-4.6C47.2,235.4,41.4,236.9,36.9,241.5C36.9,241.5,36.9,241.5,36.9,241.5"/>
		<path class="st6" d="M60.6,239.6C60.6,239.6,60.6,239.6,60.6,239.6L60.6,239.6L60.6,239.6z"/>
		<path class="st8" d="M61.9,244.2C61.9,244.3,61.9,244.3,61.9,244.2L61.9,244.2L61.9,244.2z"/>
		<path class="st8" d="M52.5,264.3L52.5,264.3C52.5,264.3,52.5,264.3,52.5,264.3c0.8-4.7,3.3-8.5,6.7-11.7c0.6-2.3,1.4-4.5,2.2-6.8
			c0.2-0.5,0.4-1,0.5-1.5c-2.9,0-5.7,0.1-8.4,0.5c-4.9,4-8.8,8.6-9.7,14.9L52.5,264.3"/>
	</g>
	<text transform="matrix(1 0 0 1 99.4138 265.4146)"><tspan x="0" y="0" class="st0 st9 st10 st11">n</tspan><tspan x="31.3" y="0" class="st0 st9 st10">t</tspan><tspan x="51.7" y="0" class="st0 st9 st10 st11">o</tspan><tspan x="82.7" y="0" class="st0 st9 st10">l</tspan><tspan x="97.4" y="0" class="st0 st9 st10 st11">o</tspan><tspan x="128.4" y="0" class="st0 st9 st10">g</tspan><tspan x="158.1" y="0" class="st0 st9 st10">y</tspan></text>
</g>
</svg>
